<svg width="60" height="59" viewBox="0 0 60 59" fill="none" xmlns="http://www.w3.org/2000/svg">
<path d="M57.223 46.2567C56.347 47.5021 55.202 48.1887 54 48.1887C52.798 48.1887 51.653 47.5021 50.777 46.2567C50.43 45.7633 49.802 45.6851 49.371 46.0853C48.942 46.4844 48.875 47.2089 49.223 47.7022C50.486 49.4997 52.182 50.4887 54 50.4887C55.818 50.4887 57.515 49.4997 58.777 47.7022C59.125 47.2089 59.057 46.4844 58.629 46.0853C58.198 45.6851 57.568 45.7633 57.223 46.2567Z" fill="#FFCC00"/>
<path d="M41.777 41.8326C42.125 41.3393 42.057 40.6148 41.629 40.2157C41.198 39.8167 40.569 39.8926 40.223 40.3871C39.347 41.6325 38.202 42.3191 37 42.3191C35.798 42.3191 34.653 41.6325 33.777 40.3871C33.43 39.8926 32.801 39.8167 32.371 40.2157C31.942 40.6148 31.875 41.3393 32.223 41.8326C33.486 43.6301 35.182 44.6191 37 44.6191C38.818 44.6191 40.515 43.6301 41.777 41.8326Z" fill="#FFCC00"/>
<path d="M32.223 47.348C31.347 48.5935 30.202 49.28 29 49.28C27.798 49.28 26.653 48.5935 25.777 47.348C25.43 46.8547 24.801 46.7765 24.371 47.1767C23.942 47.5757 23.875 48.3002 24.223 48.7936C25.485 50.5899 27.182 51.58 29 51.58C30.818 51.58 32.515 50.591 33.777 48.7936C34.125 48.3002 34.057 47.5757 33.629 47.1767C33.197 46.7765 32.568 46.8535 32.223 47.348Z" fill="#FFCC00"/>
<path d="M18.223 53.0371C17.347 54.2825 16.202 54.9691 15 54.9691C13.798 54.9691 12.653 54.2825 11.777 53.0371C11.431 52.5437 10.802 52.4655 10.371 52.8657C9.942 53.2648 9.875 53.9893 10.223 54.4826C11.486 56.2801 13.182 57.2691 15 57.2691C16.818 57.2691 18.515 56.2801 19.777 54.4826C20.125 53.9893 20.057 53.2648 19.629 52.8657C19.198 52.4655 18.568 52.5437 18.223 53.0371Z" fill="#FFCC00"/>
<path d="M21.223 32.3371C20.347 33.5825 19.202 34.2691 18 34.2691C16.798 34.2691 15.653 33.5825 14.777 32.3371C14.43 31.8437 13.802 31.7655 13.371 32.1657C12.942 32.5648 12.875 33.2893 13.223 33.7826C14.486 35.5801 16.182 36.5691 18 36.5691C19.818 36.5691 21.515 35.5801 22.777 33.7826C23.125 33.2893 23.057 32.5648 22.629 32.1657C22.197 31.7655 21.568 31.8437 21.223 32.3371Z" fill="#FFCC00"/>
<path d="M10.777 42.9826C11.125 42.4893 11.057 41.7648 10.629 41.3657C10.198 40.9655 9.569 41.0437 9.223 41.5371C8.347 42.7825 7.202 43.4691 6 43.4691C4.798 43.4691 3.653 42.7825 2.777 41.5371C2.43 41.0426 1.801 40.9655 1.371 41.3657C0.941996 41.7648 0.874996 42.4893 1.223 42.9826C2.485 44.7801 4.182 45.7702 6 45.7702C7.818 45.7702 9.515 44.7801 10.777 42.9826Z" fill="#FFCC00"/>
<path d="M47.223 54.248C46.347 55.4935 45.202 56.18 44 56.18C42.798 56.18 41.653 55.4935 40.777 54.248C40.43 53.7535 39.802 53.6765 39.371 54.0767C38.942 54.4757 38.875 55.2002 39.223 55.6936C40.485 57.4899 42.182 58.48 44 58.48C45.818 58.48 47.515 57.491 48.777 55.6936C49.125 55.2002 49.057 54.4757 48.629 54.0767C48.197 53.6765 47.568 53.7535 47.223 54.248Z" fill="#FFCC00"/>
<path d="M50.001 9.85801C50.001 8.69766 50.686 7.67071 51.593 7.46716C52.206 7.33031 52.801 7.50051 53.271 7.94671C53.735 8.38716 54.001 9.03346 54.001 9.72116C54.001 10.7159 54.375 11.6624 55.026 12.319C55.675 12.9734 56.541 13.2724 57.409 13.1401C58.836 12.9205 60.022 11.2886 60 9.57741C59.966 7.00831 58.983 4.55191 57.306 2.83956C55.607 1.10536 53.425 0.298061 51.15 0.571761C47.141 1.05246 44.002 5.19361 44.002 9.99716V14.78H30.002V10.3157C30.002 9.15651 30.687 8.12841 31.594 7.92486C32.205 7.78916 32.802 7.95936 33.272 8.40441C33.736 8.84486 34.002 9.49231 34.002 10.18C34.002 11.1748 34.376 12.1212 35.027 12.7767C35.678 13.4322 36.549 13.7289 37.411 13.5978C38.838 13.3782 40.023 11.7475 40.001 10.0363C39.967 7.46601 38.984 5.00846 37.306 3.29726C35.607 1.56306 33.415 0.760361 31.151 1.03061C27.142 1.51131 24.003 5.65246 24.003 10.456V20.53H0V27.43H24.001V41.23H30.001V33.18H44.001V41.23H50.001V26.28H60V19.38H50.001V9.85801ZM24 25.13H2V22.83H24V25.13ZM48.001 38.93H46.001V30.88H28.001V38.93H26.001V10.456C26.001 6.81396 28.354 3.67791 31.356 3.31796C33.063 3.11096 34.702 3.71701 35.977 5.01766C37.237 6.30336 37.974 8.14566 37.999 10.0719C38.007 10.6228 37.574 11.2518 37.144 11.3174C36.849 11.3657 36.563 11.2668 36.342 11.0448C36.125 10.8263 36 10.5101 36 10.1789C36 8.80116 35.469 7.50741 34.542 6.62881C33.617 5.75251 32.402 5.40176 31.211 5.66741C29.351 6.08256 28 8.03871 28 10.3157V17.08H46V9.99946C46 6.35741 48.353 3.22136 51.355 2.86141C53.059 2.65901 54.701 3.26161 55.976 4.56226C57.236 5.84796 57.973 7.68911 57.998 9.61536C58.006 10.1662 57.573 10.7964 57.142 10.862C56.85 10.9057 56.562 10.8114 56.341 10.5894C56.124 10.3709 55.999 10.0547 55.999 9.72346C55.999 8.34691 55.468 7.05316 54.541 6.17456C53.615 5.29596 52.396 4.94521 51.21 5.21201C49.35 5.62716 47.999 7.58331 47.999 9.86031V19.38L48 26.28L48.001 38.93ZM58 21.68V23.98H50.001V21.68H58Z" fill="#FFCC00"/>
<path d="M28.001 28.58H46.001V19.38H28.001V28.58ZM30.001 21.68H44.001V26.28H30.001V21.68Z" fill="#FFCC00"/>
</svg>
