<svg width="60" height="61" viewBox="0 0 60 61" fill="none" xmlns="http://www.w3.org/2000/svg">
<path d="M42.4095 16.1584V1.44251C42.4095 0.779634 42.9186 0.242188 43.5464 0.242188C44.1743 0.242188 44.6833 0.779634 44.6833 1.44251V16.1584C44.6833 16.8213 44.1743 17.3587 43.5464 17.3587C42.9186 17.3587 42.4095 16.8213 42.4095 16.1584ZM39.2647 17.3587C39.8925 17.3587 40.4015 16.8213 40.4015 16.1584V1.44251C40.4015 0.779634 39.8925 0.242188 39.2647 0.242188C38.6368 0.242188 38.1278 0.779634 38.1278 1.44251V16.1584C38.1278 16.8213 38.6368 17.3587 39.2647 17.3587ZM16.3518 28.5681C16.3518 27.9052 15.8428 27.3678 15.2149 27.3678H1.1369C0.677033 27.3678 0.262497 27.6602 0.0865647 28.1087C-0.0893678 28.5572 0.00783559 29.0734 0.332984 29.4167L11.9316 41.6628C12.1536 41.8971 12.4445 42.0143 12.7355 42.0143C13.0266 42.0143 13.3175 41.8971 13.5394 41.6628C13.9835 41.194 13.9835 40.4341 13.5394 39.9654L3.88162 29.7686H15.2149C15.8428 29.7684 16.3518 29.2311 16.3518 28.5681ZM23.1452 36.3495V56.4316C23.1452 58.5328 21.526 60.2422 19.5359 60.2422C17.5459 60.2422 15.9269 58.5328 15.9269 56.4316V36.3495C15.9269 34.6677 16.9643 33.2366 18.399 32.7326V22.8924C14.0839 22.1693 10.7397 17.3874 10.7397 11.6145C10.7397 5.34373 14.6857 0.242188 19.5359 0.242188C24.3863 0.242188 28.3323 5.34373 28.3323 11.6145C28.3323 17.3874 24.9881 22.1693 20.6728 22.8924V32.7326C22.1078 33.2365 23.1452 34.6674 23.1452 36.3495ZM19.5359 20.5862C23.1324 20.5862 26.0585 16.5615 26.0585 11.6145C26.0585 6.66754 23.1324 2.64284 19.5359 2.64284C15.9394 2.64284 13.0135 6.66754 13.0135 11.6145C13.0135 16.5615 15.9394 20.5862 19.5359 20.5862ZM20.8715 36.3495C20.8715 35.5722 20.2723 34.9397 19.5359 34.9397C18.7996 34.9397 18.2006 35.5722 18.2006 36.3495V56.4316C18.2006 57.2091 18.7996 57.8415 19.5359 57.8415C20.2723 57.8415 20.8715 57.209 20.8715 56.4316V36.3495ZM59.9134 28.1088C59.7375 27.6604 59.3229 27.3679 58.8631 27.3679H45.0514C44.4235 27.3679 43.9145 27.9054 43.9145 28.5683C43.9145 29.2311 44.4235 29.7686 45.0514 29.7686H56.1185L46.9265 39.4734C46.4826 39.9421 46.4826 40.7021 46.9265 41.1708C47.1486 41.4052 47.4395 41.5223 47.7304 41.5223C48.0215 41.5223 48.3124 41.4052 48.5344 41.1708L59.667 29.4169C59.9923 29.0736 60.0893 28.5573 59.9134 28.1088ZM45.0149 36.3495V56.4316C45.0149 58.5328 43.3957 60.2422 41.4055 60.2422C39.4154 60.2422 37.7965 58.5328 37.7965 56.4316V36.3495C37.7965 34.6677 38.8341 33.2366 40.2687 32.7326V22.897C36.6375 22.3165 33.8458 18.9988 33.8458 15.0055V1.44251C33.8458 0.779634 34.3549 0.242188 34.9827 0.242188C35.6106 0.242188 36.1196 0.779634 36.1196 1.44251V15.0055C36.1196 18.0769 38.4821 20.5769 41.3892 20.5864C41.4 20.5862 41.4111 20.5862 41.4219 20.5864C44.329 20.5769 46.6916 18.0769 46.6916 15.0055V1.44251C46.6916 0.779634 47.2007 0.242188 47.8285 0.242188C48.4563 0.242188 48.9654 0.779634 48.9654 1.44251V15.0055C48.9654 18.9988 46.1736 22.3165 42.5424 22.897V32.7326C43.9773 33.2365 45.0149 34.6674 45.0149 36.3495ZM42.7411 36.3495C42.7411 35.5722 42.142 34.9397 41.4055 34.9397C40.6691 34.9397 40.0703 35.5722 40.0703 36.3495V56.4316C40.0703 57.2091 40.6693 57.8415 41.4055 57.8415C42.1421 57.8415 42.7411 57.209 42.7411 56.4316V36.3495ZM34.4517 52.6441L30.0001 57.3444L26.6845 53.8438C26.2405 53.3751 25.5207 53.3751 25.0766 53.8438C24.6327 54.3126 24.6327 55.0725 25.0766 55.5413L29.1961 59.8905C29.4093 60.1156 29.6985 60.242 30.0001 60.242C30.3016 60.242 30.5907 60.1156 30.804 59.8905L36.0594 54.3415C36.5033 53.8727 36.5033 53.1128 36.0592 52.644C35.6154 52.1752 34.8956 52.1755 34.4517 52.6441ZM38.3351 28.5684C38.3351 27.9055 37.8261 27.3681 37.1982 27.3681H23.876C23.2481 27.3681 22.7391 27.9055 22.7391 28.5684C22.7391 29.2313 23.2481 29.7687 23.876 29.7687H37.1984C37.8261 29.7687 38.3351 29.2314 38.3351 28.5684Z" fill="#F7CB19"/>
</svg>
