<svg width="60" height="60" viewBox="0 0 60 60" fill="none" xmlns="http://www.w3.org/2000/svg">
<path d="M13.8159 14.8867L11.5949 13.6743L10.3799 11.4581C10.0269 10.8154 8.97492 10.8164 8.62492 11.4581L7.41092 13.6743L5.18992 14.8867C4.86892 15.0613 4.66992 15.3976 4.66992 15.7618C4.66992 16.1271 4.86992 16.4623 5.19092 16.638L7.41192 17.8494L8.62592 20.0656C8.80092 20.3859 9.13792 20.5855 9.50292 20.5855C9.86792 20.5855 10.2049 20.3869 10.3799 20.0656L11.5949 17.8494L13.8149 16.637C14.1359 16.4623 14.3359 16.1261 14.3359 15.7618C14.3359 15.3976 14.1369 15.0613 13.8159 14.8867ZM10.3788 16.2388C10.2108 16.3296 10.0728 16.4673 9.9808 16.635L9.5028 17.5071L9.0248 16.635C8.9328 16.4673 8.7948 16.3286 8.6268 16.2378L7.7538 15.7618L8.6278 15.2839C8.7948 15.1921 8.9338 15.0554 9.0248 14.8877L9.5028 14.0166L9.9808 14.8877C10.0728 15.0554 10.2108 15.1931 10.3778 15.2839L11.2518 15.7618L10.3788 16.2388Z" fill="#FFCC00"/>
<path d="M32.8159 3.91024L30.5949 2.69784L29.3809 0.481592C29.0279 -0.16103 27.9759 -0.160032 27.6259 0.481592L26.4119 2.69784L24.1899 3.91024C23.8689 4.08487 23.6699 4.42115 23.6699 4.78536C23.6699 5.15058 23.8699 5.48586 24.1909 5.66149L26.4119 6.87289L27.6259 9.08914C27.8009 9.40945 28.1379 9.60902 28.5029 9.60902C28.8679 9.60902 29.2049 9.41045 29.3799 9.08914L30.5949 6.87289L32.8149 5.66049C33.1359 5.48586 33.3359 5.14958 33.3359 4.78536C33.3359 4.42115 33.1369 4.08487 32.8159 3.91024ZM29.3788 5.26234C29.2108 5.35315 29.0728 5.49085 28.9808 5.65849L28.5028 6.53062L28.0248 5.65849C27.9328 5.49085 27.7948 5.35215 27.6268 5.26134L26.7538 4.78536L27.6278 4.30739C27.7948 4.21559 27.9338 4.07888 28.0248 3.91124L28.5028 3.04011L28.9808 3.91124C29.0728 4.07888 29.2108 4.21658 29.3778 4.30739L30.2518 4.78536L29.3788 5.26234Z" fill="#FFCC00"/>
<path d="M57.259 49.0494L48.983 26.3601L55.722 14.2261C55.987 13.7501 55.82 13.1504 55.347 12.878L52.749 11.3812C52.287 11.1147 51.748 11.0449 51.231 11.1816C50.714 11.3203 50.283 11.6506 50.016 12.1116L49.15 11.6127C48.456 11.2145 47.647 11.1068 46.873 11.3133C46.099 11.5199 45.452 12.0148 45.051 12.7073L40.551 20.4856C40.15 21.1772 40.044 21.9844 40.251 22.7568C40.387 23.2657 40.659 23.7107 41.021 24.075H35H25H20.128C19.15 24.075 18.232 24.5529 17.67 25.3512C17.109 26.1505 16.974 27.1753 17.308 28.0913C17.739 29.2718 18.872 30.0641 20.128 30.0641H24V34.0555V38.047C24 38.5988 24.448 39.0449 25 39.0449H35C35.552 39.0449 36 38.5988 36 38.047V34.0555V30.0641H44.206L51.122 49.0235H49H45H18H14H10H3C1.346 49.0235 0 50.3666 0 52.017C0 53.3163 0.839 54.4139 2 54.827V57.0063C2 58.6568 3.346 59.9999 5 59.9999H6C7.654 59.9999 9 58.6568 9 57.0063V55.0106H10H14H18H36V56.0085C36 58.2098 37.794 59.9999 40 59.9999H56C58.206 59.9999 60 58.2098 60 56.0085V54.0128V52.017C59.9999 50.4544 58.7909 49.1831 57.259 49.0494ZM24 28.0684H20.128C19.709 28.0684 19.332 27.804 19.188 27.4118C19.075 27.1015 19.119 26.7682 19.309 26.4988C19.499 26.2273 19.798 26.0727 20.128 26.0727H24V28.0684ZM33.9999 37.0491H25.9999V35.0534H33.9999V37.0491ZM33.9999 33.0577H25.9999V30.0641H33.9999V33.0577ZM33.9999 28.0684H25.9999V26.0727H33.9999V28.0684ZM7 57.0063C7 57.5572 6.551 58.0042 6 58.0042H5C4.449 58.0042 4 57.5572 4 57.0063V55.0106H7V57.0063ZM9 53.0149H8H3C2.449 53.0149 2 52.5679 2 52.017C2 51.4662 2.449 51.0192 3 51.0192H9V53.0149ZM13 53.0149H11V51.0192H13V53.0149ZM17 53.0149H15V51.0192H17V53.0149ZM50.9999 13.9746C50.9999 13.9736 50.9999 13.9726 50.9999 13.9716L51.6239 13.1105L53.4339 14.1173L47.6629 24.5649C47.6009 24.527 47.5499 24.497 47.4869 24.4631C47.4269 24.4302 47.3759 24.3963 47.3139 24.3663C46.7899 24.1079 46.2289 23.9372 45.6439 23.8754C45.6039 23.8704 45.4409 23.8664 45.4019 23.8624L50.9999 13.9746ZM35.9999 28.0684V26.0727H42.3429L43.2069 28.0684H35.9999ZM43.5179 23.3455L42.6509 22.8466C42.4199 22.7129 42.2549 22.4983 42.1859 22.2419C42.1169 21.9844 42.1519 21.716 42.2859 21.4845L46.7859 13.7062C46.9199 13.4757 47.1359 13.311 47.3929 13.2412C47.4789 13.2192 47.5659 13.2073 47.6529 13.2073C47.8259 13.2073 47.9969 13.2532 48.1519 13.342L49.0179 13.8409L45.3509 20.1773L43.5179 23.3455ZM44.8779 26.0727H46.0489C46.2069 26.0727 46.3529 26.1196 46.4889 26.1874C46.5479 26.2184 46.6049 26.2573 46.6629 26.2922C46.8059 26.405 46.9239 26.5506 46.9889 26.7293L55.1219 49.0235H53.2499L44.8779 26.0727ZM49.9999 51.0192H51.9999V53.0149H49.9999V51.0192ZM45.9999 51.0192H47.9999V53.0149H45.9999V51.0192ZM36.9999 53.0149H18.9999V51.0192H43.9999V53.0149H36.9999ZM57.9999 56.0085C57.9999 57.1091 57.1029 58.0042 55.9999 58.0042H39.9999C38.8969 58.0042 37.9999 57.1091 37.9999 56.0085V55.0106H44.9999H48.9999H52.9999H57.9999V56.0085ZM57.9999 53.0149H53.9999V51.0192H56.5499H56.9999C57.5509 51.0192 57.9999 51.4662 57.9999 52.017V53.0149Z" fill="#FFCC00"/>
</svg>
